<?xml version="1.0" standalone="no"?>
<!DOCTYPE svg PUBLIC "-//W3C//DTD SVG 20010904//EN"
 "http://www.w3.org/TR/2001/REC-SVG-20010904/DTD/svg10.dtd">
<svg version="1.0" xmlns="http://www.w3.org/2000/svg"
 width="700.000000pt" height="700.000000pt" viewBox="0 0 700.000000 700.000000"
 preserveAspectRatio="xMidYMid meet">
<metadata>
Created by potrace 1.14, written by Peter Selinger 2001-2017
</metadata>
<g transform="translate(0.000000,700.000000) scale(0.100000,-0.100000)"
fill="#000000" stroke="none">
<path d="M5250 6125 l0 -875 875 0 875 0 0 875 0 875 -875 0 -875 0 0 -875z"/>
<path d="M3102 6662 c-11 -26 -50 -117 -87 -202 -37 -85 -72 -168 -80 -185 -7
-16 -49 -113 -93 -215 -44 -102 -150 -345 -237 -540 -87 -195 -163 -369 -171
-385 l-13 -31 197 -83 c108 -46 215 -92 237 -102 22 -9 115 -50 205 -89 91
-39 179 -78 195 -85 148 -68 759 -335 766 -335 5 0 9 1 9 3 0 8 229 542 279
650 17 37 31 69 31 71 0 2 27 66 61 143 134 303 291 660 306 692 8 18 11 37 6
41 -4 4 -84 42 -178 83 -93 41 -192 85 -220 97 -27 12 -149 65 -270 117 -121
52 -238 103 -260 113 -22 10 -85 37 -140 60 -55 23 -118 50 -140 60 -75 34
-300 133 -341 150 l-41 18 -21 -46z"/>
<path d="M10 5832 c-7 -3 -10 -303 -10 -876 l0 -872 875 0 875 0 0 876 0 875
-865 0 c-476 0 -869 -1 -875 -3z"/>
<path d="M6325 4448 c-16 -5 -39 -14 -50 -19 -30 -13 -519 -206 -1095 -431
-69 -27 -134 -53 -145 -58 -11 -5 -31 -12 -45 -16 -14 -4 -47 -17 -75 -29 -27
-12 -80 -33 -117 -46 -68 -24 -76 -34 -59 -67 15 -26 543 -1367 578 -1467 8
-22 20 -54 28 -72 8 -17 15 -36 15 -42 0 -6 3 -11 7 -11 6 0 490 190 548 215
17 7 89 36 160 63 72 28 218 85 325 127 107 42 283 110 390 152 107 42 198 79
202 82 5 5 -67 197 -111 296 -5 11 -16 40 -26 65 -9 25 -22 56 -27 70 -6 14
-63 158 -128 320 -135 336 -317 809 -326 845 -8 32 -13 34 -49 23z"/>
<path d="M2624 3792 l-582 -2 2 -873 1 -872 873 -1 872 -1 0 873 0 873 -292 3
c-161 2 -555 2 -874 0z"/>
<path d="M0 2917 l0 -874 875 0 875 0 0 873 0 874 -875 0 -875 0 0 -873z"/>
<path d="M0 875 l0 -875 875 0 875 0 0 875 0 875 -875 0 -875 0 0 -875z"/>
<path d="M2042 875 l0 -875 874 0 874 0 0 875 0 875 -874 0 -874 0 0 -875z"/>
<path d="M4085 878 l0 -873 875 -3 875 -2 0 875 0 875 -875 0 -876 0 1 -872z"/>
</g>
</svg>
