<svg xmlns="http://www.w3.org/2000/svg" viewBox="0 0 24 24">
    <g fill="#bbc8d0">
        <path d="M6,18c0,2,0,3.9,0,6c-1.9,0-3.9,0-6,0c0-1.9,0-3.9,0-6C1.9,18,3.8,18,6,18z"/>
        <path d="M13,18c0,2,0,3.9,0,6c-1.9,0-3.9,0-6,0c0-1.9,0-3.9,0-6C8.9,18,10.8,18,13,18z"/>
        <path d="M20,18c0,2,0,3.9,0,6c-1.9,0-3.9,0-6,0c0-1.9,0-3.9,0-6C15.9,18,17.8,18,20,18z"/>
        <path d="M6,11c0,2,0,3.9,0,6c-1.9,0-3.9,0-6,0c0-1.9,0-3.9,0-6C1.9,11,3.8,11,6,11z"/>
        <path d="M13,11c0,2,0,3.9,0,6c-1.9,0-3.9,0-6,0c0-1.9,0-3.9,0-6C8.9,11,10.8,11,13,11z"/>
        <path d="M6,4c0,2,0,3.9,0,6c-1.9,0-3.9,0-6,0c0-1.9,0-3.9,0-6C1.9,4,3.8,4,6,4z"/>
        <path d="M16.2,3.4c-0.8,1.8-1.6,3.6-2.4,5.5C12,8.1,10.2,7.3,8.3,6.5C9.1,4.7,9.9,2.9,10.7,1C12.5,1.8,14.2,2.5,16.2,3.4z"/>
        <path d="M24,0c0,2,0,3.9,0,6c-1.9,0-3.9,0-6,0c0-1.9,0-3.9,0-6C19.9,0,21.8,0,24,0z"/>
        <path d="M21.8,8.7c0.7,1.9,1.4,3.6,2.2,5.6c-1.8,0.7-3.6,1.4-5.6,2.2c-0.7-1.8-1.4-3.6-2.2-5.6C18,10.2,19.8,9.5,21.8,8.7z"/>
    </g>
</svg>
